<svg width="266" height="45" viewBox="0 0 266 45" xmlns="http://www.w3.org/2000/svg" xmlns:xlink="http://www.w3.org/1999/xlink"><title>Logo</title><defs><path id="a" d="M0 38.53h85.712V.079H0z"/><path id="c" d="M0 .254v13.042h9.248V.254H0z"/><path id="e" d="M0 17.42h174.796V0H0z"/></defs><g fill="none" fill-rule="evenodd"><path d="M7.362 3.667c.972 0 1.761-.786 1.761-1.755 0-.97-.789-1.755-1.761-1.755C6.389.157 5.6.943 5.6 1.912c0 .97.788 1.755 1.76 1.755M81.105 10.341h.387c.193 0 .425.029.425.264 0 .284-.213.307-.454.307h-.358v-.57zm0 1.68v-.835h.302l.505.835h.363l-.547-.859c.292-.033.51-.179.51-.533 0-.396-.241-.562-.713-.562h-.74v1.954h.32z" fill="#EF7D00"/><path d="M81.454 9.553c.755 0 1.35.6 1.35 1.458 0 .864-.595 1.459-1.35 1.459-.84 0-1.359-.656-1.359-1.459 0-.859.595-1.458 1.359-1.458m0 3.223c.925 0 1.727-.703 1.727-1.765 0-1.061-.802-1.765-1.727-1.765-.934 0-1.736.704-1.736 1.765 0 1.006.722 1.765 1.737 1.765" fill="#EF7D00"/><g transform="translate(0 5.895)"><mask id="b" fill="#fff"><use xlink:href="#a"/></mask><path d="M55.698 14.406c-.638 4.516-4.29 7.977-8.7 7.977-4.409 0-8.06-3.461-8.699-7.977a9.826 9.826 0 0 1-.03-.228h17.459l-.03.228zm-25.002-.952H13.12c-.007-.153-.01-.306-.01-.46 0-5.185 3.939-9.389 8.798-9.389 4.86 0 8.798 4.204 8.798 9.389 0 .154-.003.307-.01.46zm-.089.952c-.638 4.515-4.29 7.977-8.7 7.977-4.409 0-8.06-3.462-8.699-7.977a9.839 9.839 0 0 1-.03-.228h17.46l-.03.228zm55.105-.952h-6.357c-1.97-2.772-6.385-3.282-11.888-3.282-3.357 0-4.043-.876-3.897-3.498.046-.834 1.087-3.066 6.053-3.074 4.088-.006 6.249 2.153 6.284 3.36l3.508-.004c.077-4.692-5.622-6.884-9.797-6.878-6.129.01-9.57 3.672-9.57 6.596 0 3.797 1.421 6.071 4.816 6.78h-5.56V.116h-3.527v13.338H38.21L38.2.115h-3.505l.01 13.339h-.492V.115h-3.508v3.876C28.472 1.6 25.356.115 21.91.115c-6.796 0-12.305 5.77-12.305 12.886 0 .152.002.302.007.452h-.49L9.124.114H5.601v13.34H0v.724h5.6v11.71h3.522v-11.71h.532l.022.228v.003c.426 4.1 2.688 7.623 5.907 9.647a11.83 11.83 0 0 0 6.325 1.831c2.314 0 4.478-.668 6.327-1.83a12.45 12.45 0 0 0 2.47-2.046l-.001 3.8c-.087 5.106-3.993 9.215-8.797 9.215-4.805 0-8.71-4.11-8.797-9.214H9.605c.085 7.04 5.562 12.719 12.304 12.719 6.743 0 12.22-5.68 12.305-12.72V14.179h.532l.022.228c.424 4.102 2.687 7.626 5.907 9.65A11.831 11.831 0 0 0 47 25.888c2.314 0 4.479-.668 6.328-1.83v-.002a12.471 12.471 0 0 0 2.449-2.022v3.855h3.527v-11.71H73.9c.3.069.572.144.818.228h.002c1.842.62 2.224 1.644 2.229 3.063.01 3.254-2.853 4.778-7.329 4.778-4.555 0-6.616-2.62-6.494-4.676l-3.675-.007c-.06 2.833 1.464 4.99 3.843 6.492h.003c1.725 1.087 3.926 1.713 6.323 1.713 2.318 0 5.077-.428 7.233-1.713v-.002c2.1-1.252 3.628-3.32 3.618-6.597-.004-1.2-.204-2.208-.577-3.05v-.002a5.463 5.463 0 0 0-.105-.226h5.923v-.725z" fill="#EF7D00" mask="url(#b)"/></g><g transform="translate(91 17)"><g transform="translate(0 3.871)"><mask id="d" fill="#fff"><use xlink:href="#c"/></mask><path d="M4.606 1.88c-1.734 0-2.62 1.318-2.62 3.305 0 1.879.958 3.288 2.62 3.288 1.879 0 2.584-1.663 2.584-3.288 0-1.697-.886-3.306-2.584-3.306zM0 .505h1.95v1.266h.037C2.565.706 3.685.254 4.877.254c2.945 0 4.371 2.24 4.371 4.967 0 2.51-1.264 4.877-4.028 4.877-1.192 0-2.474-.433-3.125-1.463H2.06v4.66H0V.507z" fill="#1D1D1B" mask="url(#d)"/></g><mask id="f" fill="#fff"><use xlink:href="#e"/></mask><path fill="#1D1D1B" mask="url(#f)" d="M10.315 13.717h2.06V.819h-2.06zM19.654 9.038c-.633.415-1.626.398-2.529.56-.885.145-1.68.47-1.68 1.553 0 .922 1.174 1.193 1.896 1.193.904 0 2.313-.47 2.313-1.77V9.038zm2.059 2.601c0 .506.108.705.488.705.126 0 .289 0 .505-.037v1.428c-.307.108-.957.234-1.3.234-.831 0-1.427-.289-1.59-1.138-.813.795-2.131 1.138-3.233 1.138-1.68 0-3.197-.903-3.197-2.727 0-2.33 1.86-2.71 3.595-2.908 1.48-.272 2.799-.11 2.799-1.319 0-1.066-1.101-1.264-1.933-1.264-1.155 0-1.968.47-2.059 1.48H13.73c.144-2.402 2.186-3.106 4.245-3.106 1.824 0 3.739.74 3.739 2.71v4.804zM25.128 10.718c.108 1.192 1.011 1.626 2.113 1.626.777 0 2.132-.163 2.077-1.228-.054-1.084-1.554-1.211-3.052-1.554-1.518-.325-3-.867-3-2.763 0-2.042 2.205-2.674 3.903-2.674 1.914 0 3.648.795 3.901 2.872h-2.149c-.181-.975-.993-1.247-1.897-1.247-.596 0-1.698.145-1.698.958 0 1.011 1.518 1.156 3.035 1.5 1.499.342 3.016.884 3.016 2.727 0 2.221-2.24 3.035-4.172 3.035-2.348 0-4.1-1.049-4.137-3.252h2.06zM31.649 4.378h1.553v-2.8h2.06v2.8h1.86v1.535h-1.86V10.9c0 .85.071 1.282.993 1.282.29 0 .578 0 .867-.072v1.59c-.452.036-.885.108-1.337.108-2.15 0-2.547-.83-2.583-2.384v-5.51H31.65V4.378zM38.296 13.716h2.06V4.378h-2.06v9.338zm0-10.946h2.06V.82h-2.06v1.95zM48.177 7.503c-.162-1.139-.993-1.752-2.13-1.752-1.066 0-2.566.56-2.566 3.395 0 1.554.686 3.198 2.474 3.198 1.193 0 2.024-.795 2.222-2.132h2.06c-.38 2.42-1.879 3.758-4.282 3.758-2.925 0-4.533-2.078-4.533-4.824 0-2.817 1.535-5.021 4.606-5.021 2.167 0 4.01 1.084 4.208 3.378h-2.059zM53.11 10.718c.107 1.192 1.01 1.626 2.112 1.626.777 0 2.132-.163 2.078-1.228-.055-1.084-1.553-1.211-3.053-1.554-1.517-.325-2.998-.867-2.998-2.763 0-2.042 2.203-2.674 3.9-2.674 1.916 0 3.65.795 3.903 2.872h-2.15c-.18-.975-.993-1.247-1.897-1.247-.595 0-1.697.145-1.697.958 0 1.011 1.517 1.156 3.034 1.5 1.5.342 3.017.884 3.017 2.727 0 2.221-2.24 3.035-4.172 3.035-2.349 0-4.101-1.049-4.137-3.252h2.06zM65.032 4.378h1.535V3.6c0-2.385 1.247-2.782 2.583-2.782.65 0 1.12.037 1.445.127v1.608a3.487 3.487 0 0 0-.957-.11c-.56 0-1.012.2-1.012.977v.957h1.753v1.535h-1.753v7.804h-2.059V5.913h-1.535V4.378zM77.858 9.038c0-1.607-.813-3.287-2.656-3.287-1.843 0-2.655 1.68-2.655 3.287 0 1.626.812 3.306 2.655 3.306 1.843 0 2.656-1.68 2.656-3.306m-7.37 0c0-2.854 1.715-4.913 4.714-4.913 2.998 0 4.714 2.06 4.714 4.913 0 2.872-1.716 4.931-4.714 4.931-2.999 0-4.714-2.059-4.714-4.93M80.55 4.378h1.932v1.806h.036c.235-.993 1.463-2.06 2.728-2.06.47 0 .596.037.776.055v1.987c-.288-.036-.595-.09-.885-.09-1.408 0-2.529 1.137-2.529 3.197v4.444H80.55v-9.34zM91.983 13.717h2.06V.819h-2.06zM102.497 9.038c0-1.607-.813-3.287-2.656-3.287-1.842 0-2.655 1.68-2.655 3.287 0 1.626.813 3.306 2.655 3.306 1.843 0 2.656-1.68 2.656-3.306m-7.37 0c0-2.854 1.715-4.913 4.714-4.913 2.998 0 4.714 2.06 4.714 4.913 0 2.872-1.716 4.931-4.714 4.931-2.999 0-4.714-2.059-4.714-4.93M105.189 4.378h1.95V5.75l.037.036a3.343 3.343 0 0 1 2.907-1.662c2.024 0 3.306 1.084 3.306 3.18v6.412h-2.06v-5.87c-.035-1.464-.613-2.096-1.824-2.096-1.372 0-2.258 1.084-2.258 2.456v5.51h-2.058v-9.34zM121.41 8.84c0-1.608-.723-3.09-2.511-3.09-1.825 0-2.457 1.698-2.457 3.252 0 1.535.74 3.089 2.457 3.089 1.824 0 2.51-1.662 2.51-3.252zm2.058 4.388c0 2.8-1.644 4.191-4.587 4.191-1.88 0-3.993-.722-4.173-2.907h2.059c.253 1.173 1.192 1.372 2.24 1.372 1.662 0 2.403-.849 2.403-2.384v-1.427h-.037a3.198 3.198 0 0 1-2.8 1.644c-2.962 0-4.19-2.24-4.19-4.913 0-2.512 1.571-4.68 4.227-4.68 1.174 0 2.24.489 2.763 1.537h.037V4.378h2.058v8.85zM131.236 8.225c-.072-1.3-.957-2.475-2.348-2.475-1.427 0-2.403 1.084-2.457 2.475h4.805zm-4.805 1.355c0 1.463.795 2.764 2.51 2.764 1.193 0 1.916-.524 2.277-1.554h1.951c-.451 2.041-2.186 3.18-4.228 3.18-2.925 0-4.569-2.042-4.569-4.914 0-2.655 1.734-4.931 4.516-4.931 2.944 0 4.75 2.656 4.407 5.455h-6.864zM134.145 4.378h1.933v1.806h.036c.235-.993 1.463-2.06 2.728-2.06.47 0 .596.037.776.055v1.987c-.288-.036-.595-.09-.885-.09-1.408 0-2.528 1.137-2.528 3.197v4.444h-2.06v-9.34zM145.58 13.717h2.06V.819h-2.06zM149.21 13.716h2.06V4.378h-2.06v9.338zm0-10.946h2.06V.82h-2.06v1.95zM152.228 4.378h1.536V3.6c0-2.385 1.246-2.782 2.582-2.782.65 0 1.12.037 1.445.127v1.608a3.49 3.49 0 0 0-.957-.11c-.56 0-1.012.2-1.012.977v.957h1.753v1.535h-1.753v7.804h-2.058V5.913h-1.536V4.378zM164.89 8.225c-.072-1.3-.957-2.475-2.348-2.475-1.426 0-2.402 1.084-2.457 2.475h4.806zm-4.805 1.355c0 1.463.795 2.764 2.511 2.764 1.193 0 1.915-.524 2.276-1.554h1.951c-.451 2.041-2.185 3.18-4.227 3.18-2.926 0-4.57-2.042-4.57-4.914 0-2.655 1.734-4.931 4.516-4.931 2.945 0 4.751 2.656 4.407 5.455h-6.864zM170.96 3.719c.538 0 1.012-.053 1.012-.685 0-.526-.516-.59-.948-.59h-.864v1.275h.8zm-.8 2.475h-.717V1.833h1.654c1.054 0 1.592.369 1.592 1.254 0 .79-.485 1.116-1.138 1.19l1.222 1.917h-.812l-1.127-1.864h-.674v1.864zm.78-5.51c-1.707 0-3.034 1.339-3.034 3.256 0 1.791 1.159 3.255 3.034 3.255 1.685 0 3.013-1.327 3.013-3.255 0-1.917-1.328-3.255-3.013-3.255zm0 7.196c-2.266 0-3.877-1.696-3.877-3.94 0-2.37 1.79-3.94 3.877-3.94 2.064 0 3.855 1.57 3.855 3.94s-1.79 3.94-3.855 3.94z"/></g></g></svg>